<svg xmlns="http://www.w3.org/2000/svg" viewBox="0 0 100 21.35"><defs><style>.cls-1{fill:#ee5125;}.cls-2{fill:#80b942;}.cls-3{fill:#787878;}.cls-4{fill:#349ed8;}.cls-5{fill:#fbb613;}</style></defs><title>Asset 4</title><g id="Layer_2" data-name="Layer 2"><g id="Base"><path class="cls-1" d="M0,0H10.16q0,5.08,0,10.16H0V0Z"/><path class="cls-2" d="M11.2,0H21.35q0,5.08,0,10.16H11.2q0-5.08,0-10.16Z"/><path class="cls-3" d="M91.61,3.87a4,4,0,0,1,3.2-.38c0,.63,0,1.26,0,1.88a2.09,2.09,0,0,0-1.62-.15,1.28,1.28,0,0,0-.73,1,13.83,13.83,0,0,0,0,1.64h3.21c0-.7,0-1.39,0-2.09.73-.21,1.45-.44,2.17-.66,0,.92,0,1.83,0,2.75H100V9.68c-.73,0-1.46,0-2.18,0,0,1,0,2.05,0,3.08,0,.57,0,1.14,0,1.71a1.1,1.1,0,0,0,.47.88,1.64,1.64,0,0,0,1.67-.16V17a4.3,4.3,0,0,1-2,.31,2.44,2.44,0,0,1-1.73-.79,3.28,3.28,0,0,1-.62-2.1c0-1.57,0-3.15,0-4.72H92.42q0,3.71,0,7.41h-2.2q0-3.7,0-7.41H88.7c0-.59,0-1.17,0-1.76.51,0,1,0,1.52,0a9.37,9.37,0,0,1,.15-2.34,3,3,0,0,1,1.24-1.69Z"/><path class="cls-3" d="M44.57,4a1.34,1.34,0,0,1,1.22.43,1.25,1.25,0,0,1,.15,1.43,1.37,1.37,0,0,1-1.46.61,1.24,1.24,0,0,1-1-1.22A1.27,1.27,0,0,1,44.57,4Z"/><path class="cls-3" d="M27.73,4.27h3.2l3,7.57c.25.63.49,1.27.76,1.9,1.28-3.16,2.58-6.3,3.85-9.46,1,0,2,0,3.07,0q0,6.41,0,12.81H39.38c0-3.15,0-6.3,0-9.45,0-.14,0-.28,0-.42a1.69,1.69,0,0,0-.12.21c-1.27,3.23-2.56,6.44-3.83,9.67-.53,0-1.05,0-1.58,0-1.31-3.23-2.6-6.46-3.91-9.69l-.11-.2c0,1.38,0,2.76,0,4.14q0,2.87,0,5.74H27.73q0-6.41,0-12.81Z"/><path class="cls-3" d="M50.61,7.89a6,6,0,0,1,3.26,0,2.63,2.63,0,0,1,.63.26c0,.7,0,1.4,0,2.1A3.49,3.49,0,0,0,52,9.49a2.58,2.58,0,0,0-1.82,1,3.54,3.54,0,0,0-.58,2.54,2.75,2.75,0,0,0,.89,1.83,2.78,2.78,0,0,0,2.06.61,4.19,4.19,0,0,0,2-.81c0,.66,0,1.33,0,2a5.34,5.34,0,0,1-3,.62,4.45,4.45,0,0,1-2.86-1.19A4.58,4.58,0,0,1,47.31,13a5.57,5.57,0,0,1,.87-3.41,4.42,4.42,0,0,1,2.44-1.72Z"/><path class="cls-3" d="M74.61,7.75a5.81,5.81,0,0,1,3,.32c0,.67,0,1.35,0,2a3.87,3.87,0,0,0-2.31-.68,1.18,1.18,0,0,0-1,.58,1,1,0,0,0,.32,1.12c.62.42,1.37.59,2,1a2.89,2.89,0,0,1,1.26,1.2,2.68,2.68,0,0,1-.57,3.09,4.2,4.2,0,0,1-3.06.93A6.53,6.53,0,0,1,72,16.78c0-.71,0-1.42,0-2.12a4.8,4.8,0,0,0,2,.86,2.57,2.57,0,0,0,1.52-.14.88.88,0,0,0,.26-1.25,2.64,2.64,0,0,0-1-.63,9.19,9.19,0,0,1-1.9-1,2.27,2.27,0,0,1-.82-1.25,2.8,2.8,0,0,1,.3-2.19,3.27,3.27,0,0,1,2.19-1.34Z"/><path class="cls-3" d="M59.42,8a2.48,2.48,0,0,1,2-.17c0,.73,0,1.47,0,2.2A2.34,2.34,0,0,0,60,9.72a1.82,1.82,0,0,0-1.37,1.1,4.06,4.06,0,0,0-.31,1.87q0,2.2,0,4.39H56.12q0-4.59,0-9.18h2.17c0,.53,0,1.05,0,1.58A2.81,2.81,0,0,1,59.42,8Z"/><path class="cls-3" d="M43.65,7.9c.73,0,1.46,0,2.19,0,0,3.06,0,6.12,0,9.18H43.65q0-4.59,0-9.18Z"/><path class="cls-3" d="M70.56,10A3.89,3.89,0,0,0,68.64,8.1a5.83,5.83,0,0,0-3.15-.37,4.38,4.38,0,0,0-2.89,1.54,4.89,4.89,0,0,0-1,2.81,5.27,5.27,0,0,0,.8,3.43,4.16,4.16,0,0,0,2.54,1.66,6.31,6.31,0,0,0,2.57,0A4.25,4.25,0,0,0,70,15.61a4.87,4.87,0,0,0,1-2.67A6,6,0,0,0,70.56,10Zm-2.12,4.21a2,2,0,0,1-1.08,1.06,3,3,0,0,1-1.79.08,2.19,2.19,0,0,1-1.38-1.14,4.24,4.24,0,0,1-.33-2.3A2.92,2.92,0,0,1,64.71,10a2.3,2.3,0,0,1,1.45-.57A2.36,2.36,0,0,1,68,10.1,3,3,0,0,1,68.75,12,4.81,4.81,0,0,1,68.44,14.26Z"/><path class="cls-3" d="M88.16,10.31a3.92,3.92,0,0,0-1.89-2.14A5.69,5.69,0,0,0,83,7.73a4.55,4.55,0,0,0-2.43,1,4.5,4.5,0,0,0-1.45,2.82,6.08,6.08,0,0,0,.35,3.19,4.07,4.07,0,0,0,2.23,2.17,5.91,5.91,0,0,0,3.09.26,4.29,4.29,0,0,0,2.7-1.58,5,5,0,0,0,1-3.13A5.85,5.85,0,0,0,88.16,10.31Zm-2,3.11a2.86,2.86,0,0,1-.57,1.35,2.06,2.06,0,0,1-1.28.69,2.9,2.9,0,0,1-1.57-.17,2.23,2.23,0,0,1-1.16-1.21,4.36,4.36,0,0,1-.26-2A3.17,3.17,0,0,1,82,10.25a2.25,2.25,0,0,1,1.6-.77,2.41,2.41,0,0,1,1.76.52,2.52,2.52,0,0,1,.79,1.46A5.58,5.58,0,0,1,86.18,13.42Z"/><path class="cls-4" d="M0,11.2H10.16q0,5.08,0,10.16H0V11.2Z"/><path class="cls-5" d="M11.2,11.2H21.35V21.35H11.2q0-5.08,0-10.16Z"/></g></g></svg>
